<?xml version="1.0" standalone="no"?><!DOCTYPE svg PUBLIC "-//W3C//DTD SVG 1.1//EN" "http://www.w3.org/Graphics/SVG/1.1/DTD/svg11.dtd"><svg t="1552873302205" class="icon" style="" viewBox="0 0 1024 1024" version="1.1" xmlns="http://www.w3.org/2000/svg" p-id="3492" xmlns:xlink="http://www.w3.org/1999/xlink" width="200" height="200"><defs><style type="text/css"></style></defs><path d="M511.488511 1.022977C229.018981 1.022977 0 230.041958 0 512.511489s229.018981 511.488511 511.488511 511.488511 511.488511-229.018981 511.488512-511.488511S793.958042 1.022977 511.488511 1.022977zM242.701299 583.736264c-41.174825 1.278721-74.805195-32.351648-73.526474-73.526474 1.150849-37.210789 31.584416-67.644356 68.795205-68.795205 41.174825-1.278721 74.805195 32.351648 73.526473 73.398602-1.150849 37.338661-31.456543 67.644356-68.795204 68.923077z m271.088911 0c-41.174825 1.278721-74.805195-32.351648-73.526474-73.398602 1.150849-37.210789 31.584416-67.644356 68.795205-68.795204 41.174825-1.278721 74.805195 32.351648 73.526474 73.398601-1.150849 37.210789-31.456543 67.516484-68.795205 68.795205z m271.088911 0c-41.174825 1.278721-74.805195-32.351648-73.526474-73.526474 1.150849-37.210789 31.584416-67.644356 68.795205-68.795205 41.174825-1.278721 74.805195 32.351648 73.526474 73.398602-1.150849 37.338661-31.584416 67.644356-68.795205 68.923077z" fill="#36A99E" p-id="3493"></path></svg>