<?xml version="1.0" standalone="no"?><!DOCTYPE svg PUBLIC "-//W3C//DTD SVG 1.1//EN" "http://www.w3.org/Graphics/SVG/1.1/DTD/svg11.dtd"><svg t="1563184396722" class="icon" viewBox="0 0 1024 1024" version="1.1" xmlns="http://www.w3.org/2000/svg" p-id="3042" xmlns:xlink="http://www.w3.org/1999/xlink" width="200" height="200"><defs><style type="text/css"></style></defs><path d="M582.485 261.924c-9.432 19.992-14.359 42.093-14.359 64.901 0 40.682 15.771 78.692 44.484 107.409 28.581 28.578 66.731 44.489 107.413 44.489 22.809 0 44.909-4.933 64.9-14.501-27.031 27.311-63.349 42.092-101.5 42.092-9.996 0-19.993-1.129-29.703-3.101-15.631-3.374-32.238 1.55-43.643 12.954L333.312 792.794c-1.41-43.219-36.318-77.991-79.542-79.538L530.257 436.63c11.407-11.408 16.331-27.735 12.954-43.643-9.993-47.723 4.504-96.855 39.136-131.063h0.138z m48.288 417.121l152.038 152.039c8.447 8.446 8.447 22.242 0 30.549-8.306 8.306-22.245 8.306-30.548 0L600.226 709.594l30.547-30.549z m33.506-504.544c-3.522 0-7.185 0.424-10.844 0.846C545.742 192.24 474.091 295.711 496.61 402.984l-319.14 319.28c-40.682 40.541-40.682 106.567 0 146.97 40.402 40.404 106.712 40.404 146.974 0l319.28-319.28c107.272 22.382 210.884-48.992 227.497-156.827 4.082-25.9-6.335-40.682-19.995-40.682-6.335 0-13.23 3.093-19.987 9.713l-38.009 38.01c-40.401 40.402-106.713 40.402-147.114 0-40.682-40.687-40.682-106.568 0-147.111l38.01-38.009c19.004-18.865 9.577-40.687-19.847-40.547zM226.463 820.245c-21.962-21.963-5.915-59.126 24.494-59.126s46.737 37.163 24.639 59.126c-13.659 13.516-35.617 13.516-49.133 0zM177.19 206.881l-49.129 48.989 61.238 85.876 51.38 27.026 120.224 120.224 48.988-48.993-119.938-120.362-27.027-51.381-85.736-61.379z m441.334 416.837l-73.486 73.487c-6.756 6.755-6.756 17.738 0 24.497l173.578 173.577c27.027 26.89 71.092 27.031 98.123 0s27.031-71.097 0-98.123L643.162 623.577c-6.899-6.755-17.742-6.755-24.638 0.141z" p-id="3043" fill="#8a8a8a"></path></svg>