<?xml version="1.0" standalone="no"?><!DOCTYPE svg PUBLIC "-//W3C//DTD SVG 1.1//EN" "http://www.w3.org/Graphics/SVG/1.1/DTD/svg11.dtd"><svg t="1563191475213" class="icon" viewBox="0 0 1024 1024" version="1.1" xmlns="http://www.w3.org/2000/svg" p-id="2672" xmlns:xlink="http://www.w3.org/1999/xlink" width="200" height="200"><defs><style type="text/css"></style></defs><path d="M523.776 145.92c201.728 0 366.08 164.352 366.08 366.08s-164.352 366.08-366.08 366.08S157.184 713.728 157.184 512 321.536 145.92 523.776 145.92M523.776 87.04c-234.496 0-424.96 190.464-424.96 424.96 0 234.496 189.952 424.96 424.96 424.96 234.496 0 424.96-189.952 424.96-424.96C948.736 277.504 758.272 87.04 523.776 87.04L523.776 87.04z" p-id="2673" fill="#1296db"></path><path d="M567.808 594.944c-7.68 0-14.848-3.072-20.48-8.704L392.192 431.104c-11.264-11.264-11.264-30.208 0-41.472 11.264-11.264 30.208-11.264 41.472 0l155.136 155.136c11.264 11.264 11.264 30.208 0 41.472C583.168 591.872 575.488 594.944 567.808 594.944z" p-id="2674" fill="#1296db"></path><path d="M523.776 624.64c-16.384 0-29.184-13.312-29.184-29.184L494.592 306.688c0-16.384 13.312-29.184 29.184-29.184 16.384 0 29.184 13.312 29.184 29.184l0 288.256C552.96 611.328 539.648 624.64 523.776 624.64z" p-id="2675" fill="#1296db"></path><path d="M239.104 541.184l-44.032 0c-16.384 0-29.184-13.312-29.184-29.184 0-16.384 13.312-29.184 29.184-29.184l44.032 0c16.384 0 29.184 13.312 29.184 29.184C268.288 527.872 255.488 541.184 239.104 541.184z" p-id="2676" fill="#1296db"></path><path d="M852.48 541.184 808.96 541.184c-16.384 0-29.184-13.312-29.184-29.184 0-16.384 13.312-29.184 29.184-29.184l44.032 0c16.384 0 29.184 13.312 29.184 29.184C882.176 527.872 868.864 541.184 852.48 541.184z" p-id="2677" fill="#1296db"></path><path d="M523.264 255.488C523.264 255.488 523.264 255.488 523.264 255.488c-16.384 0-29.184-13.312-29.184-29.184l0-44.032c0-16.384 13.312-29.184 29.184-29.184 0 0 0 0 0 0 16.384 0 29.184 13.312 29.184 29.184l0 44.032C552.448 242.176 539.136 255.488 523.264 255.488z" p-id="2678" fill="#1296db"></path><path d="M523.264 870.912c-16.384 0-29.184-13.312-29.184-29.184l0-44.032c0-16.384 13.312-29.184 29.184-29.184 0 0 0 0 0 0 16.384 0 29.184 13.312 29.184 29.184l0 44.032C552.448 857.6 539.136 870.912 523.264 870.912 523.264 870.912 523.264 870.912 523.264 870.912z" p-id="2679" fill="#1296db"></path></svg>