<?xml version="1.0" standalone="no"?><!DOCTYPE svg PUBLIC "-//W3C//DTD SVG 1.1//EN" "http://www.w3.org/Graphics/SVG/1.1/DTD/svg11.dtd"><svg t="1563191514457" class="icon" viewBox="0 0 1024 1024" version="1.1" xmlns="http://www.w3.org/2000/svg" p-id="3772" xmlns:xlink="http://www.w3.org/1999/xlink" width="200" height="200"><defs><style type="text/css"></style></defs><path d="M469.4 826.8c62-62.1 117.5-117.8 166.7-167.5l63.6-63.6c20.5-20.6 38.9-39 55-55.4 16.3-16.6 29.6-30.1 40.1-40.5 5.5-5.4 9.3-9.3 11.6-11.7 0.5-0.7 1.2-1.6 1.9-2.7l0.2-5.7V237.4H553.6l-332.7 335c-0.7 0.9-1.3 1.7-1.8 2.4 0.2 0.2 0.4 0.5 0.6 0.7l249.7 251.3m162.8-526.7c30.1 0 57.2 11.3 78.4 32.5 21.2 21.2 32.4 48.3 32.4 78.4 0 29.7-11 56.8-31.8 78.2-21.3 21.8-48.6 33.4-79 33.4s-57.7-11.6-78.9-33.4c-20.8-21.4-31.8-48.4-31.8-78.2 0-30.1 11.2-57.2 32.4-78.4 21.1-21.3 48.2-32.5 78.3-32.5M468.1 887.5c-12.5 0-23.7-4-33.7-12.1L176.6 616c-24.4-27.1-24.1-54.9 0.8-83.6l339.7-342.1c5.3-4.2 11.2-7.7 17.5-10.4 1.6-0.5 4.2-0.9 8-1.2 3.7-0.3 6.1-0.4 7.1-0.4h262.5c37 0 55.2 17.8 55.2 53.3v248.1l-0.3 12.9c0 8-2 14.8-6 20.3s-6.8 9.4-8.3 11.5c-0.5 1-6 6.8-16.3 17.1s-23.6 23.7-39.7 40.2c-16.2 16.5-34.6 35-55.3 55.7l-63.7 63.7C627.4 752 570.1 809.6 506 873.8c-8 8-19.1 12.5-33.4 13.5-1.5 0.1-3.1 0.2-4.5 0.2z m164.1-528.3c-14.3 0-26.5 5-36.6 15.1-10.1 10.1-15.1 22.3-15.1 36.7 0 14.3 5 26.7 15.1 37 10.1 10.4 22.3 15.6 36.6 15.6s26.5-5.2 36.6-15.6c10.1-10.4 15.1-22.7 15.1-37s-5-26.5-15.1-36.7c-10.1-10.1-22.3-15.1-36.6-15.1z" fill="#f4ea2a" p-id="3773"></path></svg>