<?xml version="1.0" standalone="no"?><!DOCTYPE svg PUBLIC "-//W3C//DTD SVG 1.1//EN" "http://www.w3.org/Graphics/SVG/1.1/DTD/svg11.dtd"><svg t="1551949804374" class="icon" style="" viewBox="0 0 1024 1024" version="1.1" xmlns="http://www.w3.org/2000/svg" p-id="6110" xmlns:xlink="http://www.w3.org/1999/xlink" width="200" height="200"><defs><style type="text/css"></style></defs><path d="M521.813333 459.52h-9.706666a166.613333 166.613333 0 0 0-114.88 46.506667 196.053333 196.053333 0 0 0-59.946667 142.613333c0 6.293333 0 12.586667 0.853333 18.666667a33.066667 33.066667 0 0 0 32 32h284.16a32.533333 32.533333 0 0 0 32-30.613334 208.96 208.96 0 0 0 0-34.666666c-6.613333-94.613333-77.44-169.386667-164.48-174.506667zM512 687.786667l-40.426667-69.866667 30.4-113.173333L490.666667 480.853333l21.333333-17.813333 21.333333 17.813333-11.413333 23.786667 30.4 113.173333z" fill="#8a8a8a" p-id="6111"></path><path d="M512 357.226667m-80.64 0a80.64 80.64 0 1 0 161.28 0 80.64 80.64 0 1 0-161.28 0Z" fill="#8a8a8a" p-id="6112"></path><path d="M512 0a512 512 0 1 0 512 512A512 512 0 0 0 512 0z m195.093333 670.08a53.333333 53.333333 0 0 1-52.8 49.92H369.706667a54.293333 54.293333 0 0 1-53.333334-51.093333c-0.64-6.72-0.96-13.76-0.96-20.586667A217.493333 217.493333 0 0 1 382.506667 490.666667a191.146667 191.146667 0 0 1 78.293333-44.906667 101.973333 101.973333 0 1 1 102.293333 0c78.613333 22.826667 138.026667 96.746667 144.426667 186.56a231.36 231.36 0 0 1-0.426667 37.76z" fill="#8a8a8a" p-id="6113"></path></svg>