<?xml version="1.0" standalone="no"?><!DOCTYPE svg PUBLIC "-//W3C//DTD SVG 1.1//EN" "http://www.w3.org/Graphics/SVG/1.1/DTD/svg11.dtd"><svg t="1563184282983" class="icon" viewBox="0 0 1024 1024" version="1.1" xmlns="http://www.w3.org/2000/svg" p-id="4507" xmlns:xlink="http://www.w3.org/1999/xlink" width="200" height="200"><defs><style type="text/css"></style></defs><path d="M580.91 602.6m-273.02 0a273.02 273.02 0 1 0 546.04 0 273.02 273.02 0 1 0-546.04 0Z" fill="#BAD4FF" p-id="4508"></path><path d="M588.56 575.75m-298.5 0a298.5 298.5 0 1 0 597 0 298.5 298.5 0 1 0-597 0Z" fill="#BAD4FF" p-id="4509"></path><path d="M928 515.44a12.81 12.81 0 0 0-3.59-9.25 13.6 13.6 0 0 0-10.17-4.5H683.43c-3.83-184.51-82.09-313.58-123-368.43 149.31 17.48 272.39 120.22 319.32 258.39h0.3a13.57 13.57 0 0 0 13.25 11.15 13.74 13.74 0 0 0 13.75-13.75 13 13 0 0 0-0.65-3.23c0-0.15 0.21-0.28 0.16-0.43-0.16-0.47-0.36-0.92-0.53-1.39-0.06-0.16-0.11-0.32-0.18-0.49-53.13-156.41-197.49-271-369.47-279.73v-0.06l-0.05 0.06q-20.68-1.05-41.84 0a0.15 0.15 0 0 0 0 0.06 443.81 443.81 0 0 0-120 22.64c-164.73 55.4-271.66 215.22-271.66 389a13.55 13.55 0 0 0 4.12 9.81c3.61 3.93 9.63 3.93 9.63 3.93h230.71c3.89 183.39 82.86 313.46 123.71 368.53-149.64-17.23-273-120.1-320.06-258.52h-0.28a13.58 13.58 0 0 0-13-9.94A13.59 13.59 0 0 0 124.92 648v0.1c55.39 162.59 209.38 279.98 390.44 279.98 6.91 0 13.65-0.7 20.47-1l0.08 0.07 0.09-0.15c217.9-10.81 392-191 392-411.56zM522.48 130.62c27 32.53 128.32 168.18 132.84 371.07H375.4c4.51-202.77 105.66-338.37 132.78-371 2.41-0.05 4.76-0.36 7.18-0.36s4.73 0.24 7.12 0.29zM130.94 501.68c6.77-191.12 152.51-346.62 339.36-368.47-40.88 54.83-119.18 183.92-123 368.48H130.94zM375.4 529.2h279.91C650.74 730.3 549 867.36 521.93 900.26c-2.2 0-4.35 0.32-6.57 0.32s-4.34-0.23-6.53-0.26C481.79 867.52 380 730.4 375.4 529.2z m184.25 368.61c40.85-55 119.89-185.12 123.77-368.61h216.37C893 720.6 746.88 876.32 559.65 897.81z" fill="#3585F9" p-id="4510"></path></svg>