<?xml version="1.0" standalone="no"?><!DOCTYPE svg PUBLIC "-//W3C//DTD SVG 1.1//EN" "http://www.w3.org/Graphics/SVG/1.1/DTD/svg11.dtd"><svg t="1551917963263" class="icon" style="" viewBox="0 0 1024 1024" version="1.1" xmlns="http://www.w3.org/2000/svg" p-id="3714" xmlns:xlink="http://www.w3.org/1999/xlink" width="200" height="200"><defs><style type="text/css"></style></defs><path d="M921.087359 990.72v-35.2A410.24 410.24 0 0 0 661.887359 576a307.2 307.2 0 1 0-300.8 0 410.24 410.24 0 0 0-256 380.8v35.2H101.887359a32 32 0 0 0 32 32 32 32 0 0 0 32-32v-34.56a345.6 345.6 0 0 1 691.2 0v35.2a31.36 31.36 0 0 0 31.36 30.08 32 32 0 0 0 32.64-32zM270.207359 307.2A241.28 241.28 0 1 1 511.487359 548.48 241.28 241.28 0 0 1 270.207359 307.2z" p-id="3715" fill="#8a8a8a"></path></svg>