<?xml version="1.0" standalone="no"?><!DOCTYPE svg PUBLIC "-//W3C//DTD SVG 1.1//EN" "http://www.w3.org/Graphics/SVG/1.1/DTD/svg11.dtd"><svg t="1551918010954" class="icon" style="" viewBox="0 0 1024 1024" version="1.1" xmlns="http://www.w3.org/2000/svg" p-id="5312" xmlns:xlink="http://www.w3.org/1999/xlink" width="200" height="200"><defs><style type="text/css"></style></defs><path d="M398.934898 897.042493c0 0-113.547079-101.719706 41.290405-319.997058 0 0 34.408671 33.619702 41.290405 63.260789 0 0 68.816319-52.9387 55.05285-190.571337 0 0 233.976916 158.27784 120.428813 447.307605 0 0 354.405729-101.719706 65.375963-543.650861 0 0-6.881734 61.934584-27.526937 82.579787 0 0-20.645203-206.449979-306.23359-309.674968 0 0 107.812471 212.184587-61.934584 368.169197 0 0-19.498076-47.025013-47.025013-88.314395 0 0-8.606005 98.797144-69.971631 151.921062C171.864276 590.808904 128.257106 855.753111 398.934898 897.042493z" p-id="5313" fill="#8a8a8a"></path></svg>