<?xml version="1.0" standalone="no"?><!DOCTYPE svg PUBLIC "-//W3C//DTD SVG 1.1//EN" "http://www.w3.org/Graphics/SVG/1.1/DTD/svg11.dtd"><svg t="1551949919011" class="icon" style="" viewBox="0 0 1024 1024" version="1.1" xmlns="http://www.w3.org/2000/svg" p-id="7123" xmlns:xlink="http://www.w3.org/1999/xlink" width="200" height="200"><defs><style type="text/css"></style></defs><path d="M928 192H96a32 32 0 0 0-32 32v576a32 32 0 0 0 32 32h832a32 32 0 0 0 32-32V224a32 32 0 0 0-32-32z m-82 64L512.19 533.92l-0.19 0.16-0.2-0.16L178 256zM128 768V297.64L470.77 583a63.81 63.81 0 0 0 82.46 0L896 297.64V768z" p-id="7124" fill="#8a8a8a"></path></svg>