<?xml version="1.0" standalone="no"?><!DOCTYPE svg PUBLIC "-//W3C//DTD SVG 1.1//EN" "http://www.w3.org/Graphics/SVG/1.1/DTD/svg11.dtd"><svg t="1551946985937" class="icon" style="" viewBox="0 0 1024 1024" version="1.1" xmlns="http://www.w3.org/2000/svg" p-id="4371" xmlns:xlink="http://www.w3.org/1999/xlink" width="200" height="200"><defs><style type="text/css"></style></defs><path d="M515.072 0C234.496 0 7.168 227.328 7.168 507.904s227.328 508.416 508.416 508.416S1024 788.992 1024 507.904 795.648 0 515.072 0z m0 941.568c-239.616 0-433.664-194.048-433.664-433.664s194.048-433.664 433.664-433.664 433.664 194.048 433.664 433.664-194.048 433.664-433.664 433.664z" fill="#8a8a8a" p-id="4372"></path><path d="M396.288 782.848c-9.216 0-18.432-3.584-25.088-10.24-13.824-13.824-13.824-36.864 0-50.688l213.504-214.016-214.016-213.504c-13.824-13.824-13.824-36.864 0-50.688s36.864-13.824 50.688 0L660.48 482.816c13.824 13.824 13.824 36.864 0 50.688l-238.592 239.104c-7.168 7.168-16.384 10.24-25.6 10.24z" fill="#8a8a8a" p-id="4373"></path></svg>