<?xml version="1.0" standalone="no"?><!DOCTYPE svg PUBLIC "-//W3C//DTD SVG 1.1//EN" "http://www.w3.org/Graphics/SVG/1.1/DTD/svg11.dtd"><svg t="1551772817822" class="icon" style="" viewBox="0 0 1024 1024" version="1.1" xmlns="http://www.w3.org/2000/svg" p-id="3818" xmlns:xlink="http://www.w3.org/1999/xlink" width="200" height="200"><defs><style type="text/css"></style></defs><path d="M144.760988 615.170754c0 100.274798 130.572848 181.615361 291.662733 181.615361 161.075559 0 291.64943-81.33954 291.649429-181.615361 0-100.30652-130.573871-181.626617-291.649429-181.626617-161.089885 0-291.662733 81.320097-291.662733 181.626617" fill="#FFFFFF" p-id="3819"></path><path d="M436.420651 812.933887c-169.727613 0-307.812551-88.716554-307.812551-197.765179s138.084938-197.770296 307.812551-197.770296c169.71738 0 307.802318 88.721671 307.802318 197.770296s-138.084938 197.765179-307.802318 197.765179z m0-363.240955c-151.919015 0-275.517007 74.230632-275.517008 165.475776 0 91.240027 123.597993 165.470659 275.517008 165.470659s275.506774-74.230632 275.506774-165.470659c0-91.245144-123.587759-165.475775-275.506774-165.475776z" fill="#885F44" p-id="3820"></path><path d="M728.372979 471.266273c-12.128225-3.640923-20.444635-6.111185-14.084786-22.047132 13.750165-34.593889 15.177678-64.443731 0.258896-85.732593-27.956725-39.948851-104.449887-37.784558-192.126762-1.077541 0-0.048095-27.53103 12.046361-20.497846-9.794064 13.492292-43.354414 11.460006-79.677691-9.531074-100.638071-47.573505-47.603181-174.070524 1.795902-282.543028 110.23873-81.237209 81.254605-128.407532 167.354566-128.407532 241.809301 0 142.41557 182.628434 229.002624 361.29565 229.002624 234.221486 0 390.023948-136.083351 390.023947-244.125043-0.001023-65.276702-54.985312-102.32141-104.387465-117.636211zM443.215404 781.982968c-142.568043 14.068414-265.635963-50.376341-274.897907-143.984299-9.259898-93.584422 98.845239-180.870394 241.397932-194.966437 142.583392-14.097066 265.657452 50.348712 274.89893 143.914714 9.246595 93.63661-98.81147 180.930769-241.398955 195.036022z" fill="#FF713C" p-id="3821"></path><path d="M442.738543 849.176322c-185.538717 0-377.448538-91.697445-377.448538-245.151419 0-77.426417 47.285956-167.357636 133.143393-253.225305 80.873935-80.853469 176.224584-133.096321 242.938008-133.096321 25.90295 0 47.496757 7.906064 62.434981 22.854521 22.980387 22.938432 28.741601 59.113329 16.883529 105.095593 44.363394-18.071587 86.078471-27.601638 120.906697-27.601638 39.821961 0 69.615521 12.509918 86.182849 36.178991 17.555841 25.067932 18.134009 58.876945 1.702781 100.485598 1.166569 0.373507 2.396583 0.740874 3.479241 1.067309 72.674183 22.529109 115.944686 72.269977 115.944686 133.116787 0.002047 122.864282-173.699064 260.275885-406.167627 260.275884z m-1.366114-599.177501c-58.58735 0-144.980999 48.532343-220.104976 123.634831-79.759555 79.770811-123.681904 161.591305-123.681904 230.391251 0 133.23856 175.488827 212.855876 345.154018 212.855876 231.637638 0 373.874129-132.781142 373.874129-227.978295 0-68.085678-71.202669-95.449909-93.02672-102.214986-8.809643-2.644223-19.869536-5.970992-25.125237-16.873296-5.350868-11.085476-0.693802-22.74912 0.830925-26.581402 8.484232-21.346167 15.737426-50.918693 2.029216-70.477144-12.96222-18.523889-39.632649-22.407336-59.72322-22.407336-31.769564 0-70.824045 9.31925-112.948445 26.960025l-3.006473 1.261736-0.283456-0.005116c-4.752234 1.692548-10.796904 3.290953-16.715707 3.290953-11.301394 0-17.20894-5.786797-19.72218-9.235339-4.782933-6.570649-5.582135-14.96483-2.364861-24.957415 12.026918-38.665625 10.061147-68.642356-5.571902-84.259032-8.895601-8.900717-22.225187-13.405311-39.613207-13.405311z m-37.046754 550.061874c-136.865157 0-242.875586-67.49216-252.084319-160.476925-5.025457-50.850132 19.72218-101.08014 69.699432-141.438313 48.021713-38.776142 114.146737-64.058968 186.190563-71.181179a413.924287 413.924287 0 0 1 40.547485-2.012843c136.843668 0 242.822374 67.460438 252.010641 160.408363 10.091846 102.320387-104.696504 197.733457-255.889995 212.69317a414.025595 414.025595 0 0 1-40.473807 2.007727zM448.678836 457.246979c-12.331863 0-24.915459 0.62524-37.373189 1.855254-65.8518 6.512321-125.900432 29.299303-169.075767 64.169485-41.231053 33.293267-61.772902 73.473385-57.841359 113.13264 7.40055 74.887594 101.963253 131.361817 219.936131 131.361817 12.320607 0 24.862247-0.62524 37.299511-1.850138 133.469827-13.20372 235.274468-92.780103 226.917126-177.38092-7.390317-74.845639-101.910041-131.288139-219.862453-131.288138z" fill="#885F44" p-id="3822"></path><path d="M883.910405 210.639394c-56.56325-62.71025-139.993404-86.61673-216.999243-70.24383h-0.031722c-17.819854 3.813862-29.179576 21.345144-25.363668 39.130206 3.798513 17.801435 21.322631 29.176506 39.142486 25.37697 54.783721-11.632945 114.071012 5.382591 154.278759 49.930179 40.171931 44.543496 51.084469 105.301278 33.878598 158.562319l0.00921 0.010233c-5.606695 17.350157 3.88447 35.909861 21.25407 41.517579 17.301038 5.602601 35.900651-3.875261 41.514509-21.183461 0-0.031722 0-0.098237 0.009209-0.12689 24.13877-74.92034 8.888438-160.325475-47.692208-222.973305" fill="#F7D11E" p-id="3823"></path><path d="M900.242372 472.684576h-0.010233c-5.129834 0-10.218736-0.809435-15.127536-2.396583-12.489452-4.036943-22.665209-12.688997-28.647457-24.362874-5.970992-11.673877-7.043417-24.982998-3.006474-37.477566 15.978926-49.494251 4.288676-104.21248-30.507827-142.799311-27.616988-30.596855-67.134003-48.148603-108.417245-48.148603a147.178037 147.178037 0 0 0-30.507828 3.200902 49.209772 49.209772 0 0 1-10.260691 1.082658c-23.01211 0-43.218314-16.352433-48.03297-38.881542-2.75474-12.814864-0.336668-25.944905 6.812149-36.962844 7.138584-11.011798 18.134009-18.58631 30.960129-21.335934l1.744738-0.357134a245.784846 245.784846 0 0 1 49.315172-5.003967c69.057819 0 135.15112 29.372981 181.354418 80.580247 57.610092 63.795978 77.362972 154.132426 51.827389 236.320287v0.152472l-0.787946 2.428306c-6.592139 20.310581-25.356504 33.961486-46.707788 33.961486zM714.524576 185.204096c50.408063 0 98.662067 21.435195 132.397403 58.8135 42.503023 47.118134 56.779168 113.920586 37.267788 174.342724-2.859118 8.836249 2.007727 18.34481 10.849093 21.198811 8.115841 2.62785 16.935718-1.414209 20.404725-8.809643v-0.089028l1.146103-2.991124c22.802332-70.90284 5.834892-150.300145-44.658106-206.206432-40.08495-44.442188-97.452519-69.925582-157.375283-69.925582a213.43302 213.43302 0 0 0-44.289716 4.65195l-0.441045 0.094144a16.756639 16.756639 0 0 0-10.187013 7.222495c-2.449795 3.768837-3.279696 8.252964-2.334161 12.635785 1.892093 8.893554 10.92277 14.84408 19.995403 12.972453a179.221848 179.221848 0 0 1 37.224809-3.910053z" fill="#885F44" p-id="3824"></path><path d="M797.050128 289.025673c-27.52796-30.54262-68.179822-42.141796-105.702414-34.164101-15.335267 3.267417-25.109887 18.362206-21.822004 33.711799 3.279696 15.285125 18.362206 25.105794 33.661657 21.776979v0.031723c18.342764-3.877307 38.232766 1.777483 51.690266 16.679891 13.471826 14.934131 17.092283 35.280528 11.31265 53.134151h0.030699c-4.807493 14.900362 3.349281 30.925337 18.264993 35.753295 14.918781 4.77577 30.92329-3.357468 35.736922-18.297738 11.790534-36.490076 4.412496-78.089519-23.172769-108.625999" fill="#F7D11E" p-id="3825"></path><path d="M793.19124 433.467389c-4.615111 0-9.198499-0.720408-13.624298-2.133593-23.390733-7.574512-36.247552-32.726356-28.721135-56.090483 4.173043-12.972453 1.134847-27.290553-7.958253-37.367049-8.977465-9.939373-23.211654-14.465456-36.352952-11.695367l-19.490914 4.125971v-4.347005c-16.368806-3.89982-29.656437-17.009396-33.304523-33.993208-2.491751-11.653411-0.304945-23.569812 6.170536-33.561374 6.465249-9.987468 16.431228-16.851806 28.069289-19.333324a128.10054 128.10054 0 0 1 26.639731-2.801812c35.984562 0 70.403466 15.290241 94.425579 41.951461 30.318516 33.556257 40.495296 81.232093 26.544563 124.402311-5.950526 18.443048-22.991644 30.843472-42.397623 30.843472zM719.339232 293.210995c18.176988 1.240247 35.280528 9.476839 47.52848 23.023366 16.788361 18.62315 22.413476 45.031613 14.696723 68.931952-2.060939 6.41306 1.481747 13.345959 7.894808 15.422248 6.181793 1.970888 13.372565-1.613754 15.390525-7.884574 10.41828-32.242332 2.838651-67.812455-19.784602-92.853781-22.381753-24.846898-57.620325-36.173874-90.367147-29.193903a12.120039 12.120039 0 0 0-7.68503 5.303796 12.20088 12.20088 0 0 0-1.692548 9.230222c1.37737 6.438643 7.906064 10.780531 14.443967 9.382694l19.574824-4.257977v2.895957z" fill="#885F44" p-id="3826"></path><path d="M457.461873 515.067872c-67.842131-17.648962-144.522558 16.160051-173.989683 75.937506-30.011524 60.96756-0.992607 128.644939 67.551512 150.767796 70.998007 22.896476 154.685012-12.1886 183.780677-77.999469 28.695552-64.327074-7.132444-130.559545-77.342506-148.705833z m-51.803853 155.695015c-13.791098 22.001083-43.320645 31.641651-65.561182 21.48636-21.922289-9.981329-28.392654-35.531238-14.600532-56.985876 13.622252-21.36254 42.160215-30.879288 64.234976-21.623483 22.337751 9.518794 29.468149 34.904974 15.926738 57.122999z m45.428655-58.303894c-4.986571 8.521071-16.008602 12.624529-24.645306 9.070586-8.490372-3.493567-11.151991-13.030781-6.327102-21.406542 4.967128-8.333806 15.559371-12.402471 24.030299-9.040911 8.607028 3.146667 11.700483 12.790304 6.942109 21.376867z" fill="#FF713C" p-id="3827"></path><path d="M396.283512 764.927523h-0.010233c-17.293875 0-34.187637-2.622734-50.198286-7.78429-38.150902-12.31549-67.01837-37.651528-81.284281-71.350025-13.70821-32.379455-12.226462-68.574818 4.194532-101.920274 26.428929-53.615105 87.276762-89.63139 151.424758-89.63139 14.024411 0 27.868721 1.750877 41.125653 5.198396 39.664372 10.255575 71.696925 35.354206 87.844697 68.853157 15.306614 31.748075 15.370059 67.99665 0.179079 102.057397-25.010627 56.546877-86.614683 94.577029-153.275919 94.577029z m24.12649-238.391458c-52.132334 0-101.342106 28.77844-122.45189 71.606874-12.204973 24.794709-13.424754 51.448766-3.427052 75.060533 10.55438 24.920576 32.379455 43.816948 61.457724 53.204759 12.80463 4.125971 26.355251 6.223748 40.284495 6.223749h0.010233c53.236482 0 104.128569-30.996968 123.755581-75.386968 11.279904-25.287943 11.363815-51.885717 0.252757-74.92955-12.015661-24.925692-36.384675-43.738154-66.86078-51.617611-10.629081-2.76395-21.73093-4.161786-33.021068-4.161786z m-61.141522 185.90199c-9.178033 0-17.882276-1.850138-25.882484-5.498224-14.443967-6.580882-24.788569-18.318204-29.120224-33.056884-4.551666-15.45397-1.755993-32.709983 7.653307-47.349401 12.794397-20.074198 35.701107-32.573883 59.743686-32.573883 8.556886 0 16.736173 1.608637 24.315802 4.78805a59.388599 59.388599 0 0 1 6.339381 3.158946 33.932834 33.932834 0 0 1 3.805676-9.845229c9.009188-15.149025 28.426423-22.165836 43.984771-15.985066 7.894807 2.880607 14.413268 9.293667 17.451463 17.435091 3.195785 8.563026 2.334161 18.323321-2.354627 26.780947-7.601118 13.014408-23.085788 20.447704-37.288255 18.276248 2.228761 13.45136-0.715291 27.879977-8.462742 40.599674-12.721743 20.280906-36.301787 33.269731-60.185754 33.269731z m12.394285-86.183871c-12.920264 0-25.693172 6.944156-32.547277 17.687847-4.436032 6.901177-5.792936 14.281261-3.869121 20.825305 1.671059 5.687536 5.666046 10.108219 11.542894 12.783141 3.76372 1.724271 7.958252 2.591011 12.478196 2.591011 13.035898 0 25.872251-7.048533 32.715099-17.955954 4.257977-6.996344 5.508457-14.559601 3.39533-21.125133-1.808182-5.655813-5.950526-10.002818-11.973706-12.568247-3.521197-1.475608-7.504928-2.237971-11.741415-2.23797z" fill="#885F44" p-id="3828"></path></svg>