<?xml version="1.0" standalone="no"?><!DOCTYPE svg PUBLIC "-//W3C//DTD SVG 1.1//EN" "http://www.w3.org/Graphics/SVG/1.1/DTD/svg11.dtd"><svg t="1563097815736" class="icon" viewBox="0 0 1024 1024" version="1.1" xmlns="http://www.w3.org/2000/svg" p-id="4107" xmlns:xlink="http://www.w3.org/1999/xlink" width="200" height="200"><defs><style type="text/css"></style></defs><path d="M777.659 963.501H246.363c-5.523 0-10-4.478-10-10 0-62.313 20.887-121.591 58.092-169.33-18.873 12.188-41.297 19.174-65.132 19.174-66.167 0-119.999-53.832-119.999-120 0-27.72 9.677-54.76 27.247-76.139 15.251-18.558 35.807-32.147 58.63-38.929l-34.329-191.44a10.046 10.046 0 0 1-0.157-1.765c0-85.095 33.138-165.096 93.308-225.266 60.171-60.17 140.172-93.308 225.266-93.308h65.422c85.095 0 165.096 33.138 225.266 93.308 60.171 60.17 93.309 140.171 93.309 225.266 0 0.592-0.053 1.183-0.157 1.765l-34.562 192.742c48.565 16.26 81.731 61.779 81.732 113.766 0 66.168-53.832 120-120.001 120-20.595 0-40.109-5.188-57.191-14.429a275.089 275.089 0 0 1 19.412 29.856c22.871 40.74 35.01 87.088 35.12 134.079a10 10 0 0 1 0.021 0.649c-0.001 5.523-4.477 10.001-10.001 10.001z m-521.102-20h510.888c-1.58-40.345-12.688-79.887-32.365-114.938-20.657-36.796-50.415-68.23-86.057-90.904a9.999 9.999 0 0 1-3.623-12.816l0.69-1.418a10 10 0 0 1 4.374-9.134 254.485 254.485 0 0 0 24.949-19.182 10 10 0 0 1 16.422 5.792c8.454 47.771 49.863 82.444 98.463 82.444 55.141 0 100.001-44.86 100.001-100-0.001-45.948-31.086-85.834-75.593-96.996a9.998 9.998 0 0 1-7.41-11.464l35.988-200.695c-0.227-79.425-31.263-154.055-87.449-210.241-56.394-56.393-131.372-87.45-211.124-87.45h-65.422c-79.752 0-154.731 31.057-211.124 87.45-56.187 56.187-87.222 130.817-87.449 210.242l35.814 199.725a10 10 0 0 1-7.795 11.553c-46.015 9.627-79.412 50.791-79.412 97.877 0 55.14 44.859 100 99.999 100 48.3 0 89.664-34.423 98.354-81.851a10 10 0 0 1 16.383-5.757 254.659 254.659 0 0 0 25.441 19.371 10 10 0 0 1 4.094 10.996l0.738 1.513a10.002 10.002 0 0 1-3.459 12.718c-68.911 45.717-111.133 121.106-114.316 203.165z m86.765-222.561a119.188 119.188 0 0 1-10.324 22.947 278.395 278.395 0 0 1 19.646-15.299 10.064 10.064 0 0 1-0.276-0.98 273.509 273.509 0 0 1-9.046-6.668z m324.831 5.404a275.545 275.545 0 0 1 14.915 11.036 119.209 119.209 0 0 1-6.95-16.974 275.062 275.062 0 0 1-7.965 5.938z" fill="#322B2C" p-id="4108"></path><path d="M790.298 683.346m-110 0a110 110 0 1 0 220 0 110 110 0 1 0-220 0Z" fill="#322B2C" p-id="4109"></path><path d="M229.323 683.346m-110 0a110 110 0 1 0 220 0 110 110 0 1 0-220 0Z" fill="#322B2C" p-id="4110"></path><path d="M813.285 598.14H210.714l-40-223.066c0-170.421 138.153-308.574 308.574-308.574h65.422c170.421 0 308.574 138.153 308.574 308.574L813.285 598.14z" fill="#322B2C" p-id="4111"></path><path d="M777.64 953.502H246.361c0-146.707 118.93-265.639 265.638-265.639 146.709 0 265.641 118.932 265.641 265.639z" fill="#F0BA93" p-id="4112"></path><path d="M365.343 732.003l77.909 159.721 95.567-162.894c-22.851-15.881-42.67-29.965-61.585-38.702-40.97 5.356-78.998 20.052-111.891 41.875z" fill="#F9D994" p-id="4113"></path><path d="M546.581 690.103c-21.55 9.515-43.803 26.032-69.392 43.815l95.564 162.896 81.635-167.594c-31.947-20.324-68.529-34.011-107.807-39.117z" fill="#EECF8D" p-id="4114"></path><path d="M770.375 534.519a266.919 266.919 0 0 0 1.609-23.433c-2.44 0.072-4.889 0.119-7.347 0.119-129.646 0-235.79-70.583-244.686-197.971-8.895 127.388-115.037 197.971-244.686 197.971-9.655 0-19.174-0.576-28.538-1.662 0.168 8.996 0.792 17.881 1.841 26.635-22.642 8.134-38.839 29.788-38.839 55.23 0 32.404 26.271 58.676 58.676 58.676a58.558 58.558 0 0 0 19.915-3.473c46.739 72.617 128.278 120.716 221.056 120.716 93.554 0 175.673-48.912 222.215-122.55a58.472 58.472 0 0 0 24.378 5.307c32.406 0 58.677-26.271 58.677-58.676 0-27.435-18.83-50.468-44.271-56.889z" fill="#F9E5E5" p-id="4115"></path><path d="M512 719.386c-30.215 0-54.796-24.581-54.796-54.795h10c0 24.7 20.096 44.795 44.796 44.795s44.796-20.095 44.796-44.795h10c0 30.214-24.581 54.795-54.796 54.795zM396 523.333c-14.154 0-26.642 7.118-34.092 17.967a44.5 44.5 0 0 1-12.059-17.852l-9.392 3.433a54.458 54.458 0 0 0 16.731 23.536 41.234 41.234 0 0 0-2.523 14.249C354.666 587.494 373.172 606 396 606s41.333-18.506 41.333-41.334c0-22.827-18.506-41.333-41.333-41.333zM624.688 524.333c14.153 0 26.643 7.118 34.092 17.967a44.49 44.49 0 0 0 12.059-17.852l9.393 3.433a54.458 54.458 0 0 1-16.731 23.536 41.257 41.257 0 0 1 2.523 14.249c0 22.828-18.507 41.334-41.334 41.334-22.828 0-41.334-18.506-41.334-41.334-0.002-22.827 18.502-41.333 41.332-41.333z" fill="#322B2C" p-id="4116"></path><path d="M390.003 638.213c0 5.848-3.781 10.586-8.446 10.586H324.45c-4.665 0-8.446-4.738-8.446-10.586 0-5.846 3.781-10.586 8.446-10.586h57.107c4.665 0 8.446 4.74 8.446 10.586zM703.134 634.117c0 5.848-3.782 10.586-8.446 10.586H637.58c-4.664 0-8.446-4.738-8.446-10.586 0-5.846 3.782-10.586 8.446-10.586h57.107c4.665 0 8.447 4.74 8.447 10.586z" fill="#F3A089" p-id="4117"></path></svg>